# xmcd
#
# Track frame offsets:
#	150
#	16943
#	33765
#	51292
#	76516
#	95037
#	116706
#
# Disc length: 1780 seconds
#
# Revision: 1
# Processed by: cddbd v1.4PL0 Copyright (c) Steve Scherf et al.
# Submitted via: audiograbber 1.80
#
DISCID=4906f207
DTITLE=shakey face - puddle jumping during a moonsoon
DYEAR=1900
DGENRE=
TTITLE0=helpless
TTITLE1=damy beta
TTITLE2=crazy, crazy like a fox
TTITLE3=aheadbehind
TTITLE4=divided
TTITLE5=fishing for swords
TTITLE6=puddle jumping during a moonsoon
EXTD=48`er\n
EXTT0=
EXTT1=
EXTT2=
EXTT3=
EXTT4=
EXTT5=
EXTT6=
PLAYORDER=
